<?xml version="1.0" standalone="yes"?>

<svg version="1.1" viewBox="0.0 0.0 581.4488188976378 501.5328083989501" fill="none" stroke="none" stroke-linecap="square" stroke-miterlimit="10" xmlns="http://www.w3.org/2000/svg" xmlns:xlink="http://www.w3.org/1999/xlink"><clipPath id="p.0"><path d="m0 0l581.4488 0l0 501.5328l-581.4488 0l0 -501.5328z" clip-rule="nonzero"></path></clipPath><g clip-path="url(#p.0)"><path fill="#000000" fill-opacity="0.0" d="m0 0l581.4488 0l0 501.5328l-581.4488 0z" fill-rule="nonzero"></path><path fill="#783f04" d="m0 249.0l0 0c0 -9.941132 8.058874 -18.0 18.0 -18.0l0 0c4.773897 0 9.352266 1.8964233 12.727922 5.2720795c3.3756542 3.3756561 5.2720776 7.9540253 5.2720776 12.727921l0 0c0 9.941132 -8.058874 18.0 -18.0 18.0l0 0c-9.941126 0 -18.0 -8.058868 -18.0 -18.0z" fill-rule="nonzero"></path><path stroke="#000000" stroke-width="1.0" stroke-linejoin="round" stroke-linecap="butt" d="m0 249.0l0 0c0 -9.941132 8.058874 -18.0 18.0 -18.0l0 0c4.773897 0 9.352266 1.8964233 12.727922 5.2720795c3.3756542 3.3756561 5.2720776 7.9540253 5.2720776 12.727921l0 0c0 9.941132 -8.058874 18.0 -18.0 18.0l0 0c-9.941126 0 -18.0 -8.058868 -18.0 -18.0z" fill-rule="nonzero"></path><path fill="#ffffff" d="m17.320312 255.92l-3.75 -9.859375l1.765625 0l2.125 5.90625q0.34375 0.953125 0.625 1.984375q0.21875 -0.78125 0.625 -1.875l2.1875 -6.015625l1.71875 0l-3.734375 9.859375l-1.5625 0z" fill-rule="nonzero"></path><path fill="#cfe2f3" d="m80.0 179.0l0 0c0 -9.941132 8.058876 -18.0 18.0 -18.0l0 0c4.7738953 0 9.352264 1.8964233 12.727921 5.2720795c3.3756561 3.3756561 5.2720795 7.9540253 5.2720795 12.727921l0 0c0 9.941132 -8.058876 18.0 -18.0 18.0l0 0c-9.941124 0 -18.0 -8.058868 -18.0 -18.0z" fill-rule="nonzero"></path><path stroke="#000000" stroke-width="1.0" stroke-linejoin="round" stroke-linecap="butt" d="m80.0 179.0l0 0c0 -9.941132 8.058876 -18.0 18.0 -18.0l0 0c4.7738953 0 9.352264 1.8964233 12.727921 5.2720795c3.3756561 3.3756561 5.2720795 7.9540253 5.2720795 12.727921l0 0c0 9.941132 -8.058876 18.0 -18.0 18.0l0 0c-9.941124 0 -18.0 -8.058868 -18.0 -18.0z" fill-rule="nonzero"></path><path fill="#cfe2f3" d="m80.0 249.0l0 0c0 -9.941132 8.058876 -18.0 18.0 -18.0l0 0c4.7738953 0 9.352264 1.8964233 12.727921 5.2720795c3.3756561 3.3756561 5.2720795 7.9540253 5.2720795 12.727921l0 0c0 9.941132 -8.058876 18.0 -18.0 18.0l0 0c-9.941124 0 -18.0 -8.058868 -18.0 -18.0z" fill-rule="nonzero"></path><path stroke="#000000" stroke-width="1.0" stroke-linejoin="round" stroke-linecap="butt" d="m80.0 249.0l0 0c0 -9.941132 8.058876 -18.0 18.0 -18.0l0 0c4.7738953 0 9.352264 1.8964233 12.727921 5.2720795c3.3756561 3.3756561 5.2720795 7.9540253 5.2720795 12.727921l0 0c0 9.941132 -8.058876 18.0 -18.0 18.0l0 0c-9.941124 0 -18.0 -8.058868 -18.0 -18.0z" fill-rule="nonzero"></path><path fill="#cfe2f3" d="m80.0 319.0l0 0c0 -9.941132 8.058876 -18.0 18.0 -18.0l0 0c4.7738953 0 9.352264 1.8964233 12.727921 5.272064c3.3756561 3.3756714 5.2720795 7.9540405 5.2720795 12.727936l0 0c0 9.941132 -8.058876 18.0 -18.0 18.0l0 0c-9.941124 0 -18.0 -8.058868 -18.0 -18.0z" fill-rule="nonzero"></path><path stroke="#000000" stroke-width="1.0" stroke-linejoin="round" stroke-linecap="butt" d="m80.0 319.0l0 0c0 -9.941132 8.058876 -18.0 18.0 -18.0l0 0c4.7738953 0 9.352264 1.8964233 12.727921 5.272064c3.3756561 3.3756714 5.2720795 7.9540405 5.2720795 12.727936l0 0c0 9.941132 -8.058876 18.0 -18.0 18.0l0 0c-9.941124 0 -18.0 -8.058868 -18.0 -18.0z" fill-rule="nonzero"></path><path fill="#cfe2f3" d="m155.0 122.0l0 0c0 -9.941124 8.058868 -18.0 18.0 -18.0l0 0c4.7738953 0 9.352264 1.8964233 12.727921 5.2720795c3.3756561 3.3756561 5.2720795 7.9540253 5.2720795 12.727921l0 0c0 9.941132 -8.058868 18.0 -18.0 18.0l0 0c-9.941132 0 -18.0 -8.058868 -18.0 -18.0z" fill-rule="nonzero"></path><path stroke="#000000" stroke-width="1.0" stroke-linejoin="round" stroke-linecap="butt" d="m155.0 122.0l0 0c0 -9.941124 8.058868 -18.0 18.0 -18.0l0 0c4.7738953 0 9.352264 1.8964233 12.727921 5.2720795c3.3756561 3.3756561 5.2720795 7.9540253 5.2720795 12.727921l0 0c0 9.941132 -8.058868 18.0 -18.0 18.0l0 0c-9.941132 0 -18.0 -8.058868 -18.0 -18.0z" fill-rule="nonzero"></path><path fill="#cfe2f3" d="m155.0 179.0l0 0c0 -9.941132 8.058868 -18.0 18.0 -18.0l0 0c4.7738953 0 9.352264 1.8964233 12.727921 5.2720795c3.3756561 3.3756561 5.2720795 7.9540253 5.2720795 12.727921l0 0c0 9.941132 -8.058868 18.0 -18.0 18.0l0 0c-9.941132 0 -18.0 -8.058868 -18.0 -18.0z" fill-rule="nonzero"></path><path stroke="#000000" stroke-width="1.0" stroke-linejoin="round" stroke-linecap="butt" d="m155.0 179.0l0 0c0 -9.941132 8.058868 -18.0 18.0 -18.0l0 0c4.7738953 0 9.352264 1.8964233 12.727921 5.2720795c3.3756561 3.3756561 5.2720795 7.9540253 5.2720795 12.727921l0 0c0 9.941132 -8.058868 18.0 -18.0 18.0l0 0c-9.941132 0 -18.0 -8.058868 -18.0 -18.0z" fill-rule="nonzero"></path><path fill="#cfe2f3" d="m155.0 249.0l0 0c0 -9.941132 8.058868 -18.0 18.0 -18.0l0 0c4.7738953 0 9.352264 1.8964233 12.727921 5.2720795c3.3756561 3.3756561 5.2720795 7.9540253 5.2720795 12.727921l0 0c0 9.941132 -8.058868 18.0 -18.0 18.0l0 0c-9.941132 0 -18.0 -8.058868 -18.0 -18.0z" fill-rule="nonzero"></path><path stroke="#000000" stroke-width="1.0" stroke-linejoin="round" stroke-linecap="butt" d="m155.0 249.0l0 0c0 -9.941132 8.058868 -18.0 18.0 -18.0l0 0c4.7738953 0 9.352264 1.8964233 12.727921 5.2720795c3.3756561 3.3756561 5.2720795 7.9540253 5.2720795 12.727921l0 0c0 9.941132 -8.058868 18.0 -18.0 18.0l0 0c-9.941132 0 -18.0 -8.058868 -18.0 -18.0z" fill-rule="nonzero"></path><path fill="#cfe2f3" d="m155.0 326.0l0 0c0 -9.941132 8.058868 -18.0 18.0 -18.0l0 0c4.7738953 0 9.352264 1.8964233 12.727921 5.272064c3.3756561 3.3756714 5.2720795 7.9540405 5.2720795 12.727936l0 0c0 9.941132 -8.058868 18.0 -18.0 18.0l0 0c-9.941132 0 -18.0 -8.058868 -18.0 -18.0z" fill-rule="nonzero"></path><path stroke="#000000" stroke-width="1.0" stroke-linejoin="round" stroke-linecap="butt" d="m155.0 326.0l0 0c0 -9.941132 8.058868 -18.0 18.0 -18.0l0 0c4.7738953 0 9.352264 1.8964233 12.727921 5.272064c3.3756561 3.3756714 5.2720795 7.9540405 5.2720795 12.727936l0 0c0 9.941132 -8.058868 18.0 -18.0 18.0l0 0c-9.941132 0 -18.0 -8.058868 -18.0 -18.0z" fill-rule="nonzero"></path><path fill="#cfe2f3" d="m155.0 403.0l0 0c0 -9.941132 8.058868 -18.0 18.0 -18.0l0 0c4.7738953 0 9.352264 1.8964233 12.727921 5.272064c3.3756561 3.3756714 5.2720795 7.9540405 5.2720795 12.727936l0 0c0 9.941132 -8.058868 18.0 -18.0 18.0l0 0c-9.941132 0 -18.0 -8.058868 -18.0 -18.0z" fill-rule="nonzero"></path><path stroke="#000000" stroke-width="1.0" stroke-linejoin="round" stroke-linecap="butt" d="m155.0 403.0l0 0c0 -9.941132 8.058868 -18.0 18.0 -18.0l0 0c4.7738953 0 9.352264 1.8964233 12.727921 5.272064c3.3756561 3.3756714 5.2720795 7.9540405 5.2720795 12.727936l0 0c0 9.941132 -8.058868 18.0 -18.0 18.0l0 0c-9.941132 0 -18.0 -8.058868 -18.0 -18.0z" fill-rule="nonzero"></path><path fill="#000000" fill-opacity="0.0" d="m30.727922 236.27208l54.551186 -44.53543" fill-rule="nonzero"></path><path stroke="#000000" stroke-width="1.0" stroke-linejoin="round" stroke-linecap="butt" d="m30.72792 236.27208l49.903374 -40.740967" fill-rule="evenodd"></path><path fill="#000000" stroke="#000000" stroke-width="1.0" stroke-linecap="butt" d="m81.675865 196.8106l2.4707947 -4.149414l-4.5599365 1.5904388z" fill-rule="evenodd"></path><path fill="#000000" fill-opacity="0.0" d="m36.0 249.0l44.0 0" fill-rule="nonzero"></path><path stroke="#000000" stroke-width="1.0" stroke-linejoin="round" stroke-linecap="butt" d="m36.0 249.0l38.0 0" fill-rule="evenodd"></path><path fill="#000000" stroke="#000000" stroke-width="1.0" stroke-linecap="butt" d="m74.0 250.65173l4.538101 -1.6517334l-4.538101 -1.6517334z" fill-rule="evenodd"></path><path fill="#000000" fill-opacity="0.0" d="m30.727922 261.72794l54.551186 44.53543" fill-rule="nonzero"></path><path stroke="#000000" stroke-width="1.0" stroke-linejoin="round" stroke-linecap="butt" d="m30.72792 261.7279l49.903374 40.740997" fill-rule="evenodd"></path><path fill="#000000" stroke="#000000" stroke-width="1.0" stroke-linecap="butt" d="m79.58672 303.74838l4.5599365 1.5904541l-2.4707947 -4.1494446z" fill-rule="evenodd"></path><path fill="#000000" fill-opacity="0.0" d="m110.72792 166.27208l49.543304 -31.559052" fill-rule="nonzero"></path><path stroke="#000000" stroke-width="1.0" stroke-linejoin="round" stroke-linecap="butt" d="m110.72793 166.27208l44.482796 -28.335526" fill-rule="evenodd"></path><path fill="#000000" stroke="#000000" stroke-width="1.0" stroke-linecap="butt" d="m156.09813 139.32967l2.9401093 -3.8312225l-4.71492 1.0450134z" fill-rule="evenodd"></path><path fill="#000000" fill-opacity="0.0" d="m116.0 179.0l38.992126 0" fill-rule="nonzero"></path><path stroke="#000000" stroke-width="1.0" stroke-linejoin="round" stroke-linecap="butt" d="m116.0 179.0l32.992126 0" fill-rule="evenodd"></path><path fill="#000000" stroke="#000000" stroke-width="1.0" stroke-linecap="butt" d="m148.99213 180.65173l4.538101 -1.6517334l-4.538101 -1.6517334z" fill-rule="evenodd"></path><path fill="#000000" fill-opacity="0.0" d="m116.0 249.0l38.992126 0" fill-rule="nonzero"></path><path stroke="#000000" stroke-width="1.0" stroke-linejoin="round" stroke-linecap="butt" d="m116.0 249.0l32.992126 0" fill-rule="evenodd"></path><path fill="#000000" stroke="#000000" stroke-width="1.0" stroke-linecap="butt" d="m148.99213 250.65173l4.538101 -1.6517334l-4.538101 -1.6517334z" fill-rule="evenodd"></path><path fill="#000000" fill-opacity="0.0" d="m116.0 319.0l38.992126 6.9921265" fill-rule="nonzero"></path><path stroke="#000000" stroke-width="1.0" stroke-linejoin="round" stroke-linecap="butt" d="m116.0 319.0l33.086334 5.9331055" fill-rule="evenodd"></path><path fill="#000000" stroke="#000000" stroke-width="1.0" stroke-linecap="butt" d="m148.79478 326.5589l4.7583923 -0.8247986l-4.175308 -2.4268188z" fill-rule="evenodd"></path><path fill="#000000" fill-opacity="0.0" d="m110.72792 331.72794l49.543304 58.551178" fill-rule="nonzero"></path><path stroke="#000000" stroke-width="1.0" stroke-linejoin="round" stroke-linecap="butt" d="m110.72793 331.7279l45.667656 53.970917" fill-rule="evenodd"></path><path fill="#000000" stroke="#000000" stroke-width="1.0" stroke-linecap="butt" d="m155.13467 386.76572l4.1922607 2.3974l-1.6704407 -4.53125z" fill-rule="evenodd"></path><path fill="#efefef" d="m292.0 61.0l210.99213 0l0 376.0l-210.99213 0z" fill-rule="nonzero"></path><path stroke="#000000" stroke-width="1.0" stroke-linejoin="round" stroke-linecap="butt" d="m292.0 61.0l210.99213 0l0 376.0l-210.99213 0z" fill-rule="nonzero"></path><path fill="#000000" fill-opacity="0.0" d="m191.0 122.0l102.01575 0" fill-rule="nonzero"></path><path stroke="#000000" stroke-width="1.0" stroke-linejoin="round" stroke-linecap="butt" stroke-dasharray="4.0,3.0" d="m191.0 122.0l102.01575 0" fill-rule="nonzero"></path><path fill="#000000" fill-opacity="0.0" d="m191.0 249.0l101.00787 0" fill-rule="nonzero"></path><path stroke="#000000" stroke-width="1.0" stroke-linejoin="round" stroke-linecap="butt" stroke-dasharray="4.0,3.0" d="m191.0 249.0l101.00787 0" fill-rule="nonzero"></path><path fill="#000000" fill-opacity="0.0" d="m191.0 179.0l102.01575 0" fill-rule="nonzero"></path><path stroke="#000000" stroke-width="1.0" stroke-linejoin="round" stroke-linecap="butt" stroke-dasharray="4.0,3.0" d="m191.0 179.0l102.01575 0" fill-rule="nonzero"></path><path fill="#000000" fill-opacity="0.0" d="m191.0 326.0l102.01575 0" fill-rule="nonzero"></path><path stroke="#000000" stroke-width="1.0" stroke-linejoin="round" stroke-linecap="butt" stroke-dasharray="4.0,3.0" d="m191.0 326.0l102.01575 0" fill-rule="nonzero"></path><path fill="#000000" fill-opacity="0.0" d="m191.0 403.0l102.01575 0" fill-rule="nonzero"></path><path stroke="#000000" stroke-width="1.0" stroke-linejoin="round" stroke-linecap="butt" stroke-dasharray="4.0,3.0" d="m191.0 403.0l102.01575 0" fill-rule="nonzero"></path><path fill="#ff9900" d="m310.0 94.0l0 0c0 -9.941124 8.058868 -18.0 18.0 -18.0l0 0c4.7738953 0 9.352264 1.8964233 12.727936 5.2720795c3.3756409 3.3756561 5.272064 7.9540253 5.272064 12.727921l0 0c0 9.941124 -8.058868 18.0 -18.0 18.0l0 0c-9.941132 0 -18.0 -8.058876 -18.0 -18.0z" fill-rule="nonzero"></path><path stroke="#000000" stroke-width="1.0" stroke-linejoin="round" stroke-linecap="butt" d="m310.0 94.0l0 0c0 -9.941124 8.058868 -18.0 18.0 -18.0l0 0c4.7738953 0 9.352264 1.8964233 12.727936 5.2720795c3.3756409 3.3756561 5.272064 7.9540253 5.272064 12.727921l0 0c0 9.941124 -8.058868 18.0 -18.0 18.0l0 0c-9.941132 0 -18.0 -8.058876 -18.0 -18.0z" fill-rule="nonzero"></path><path fill="#ff9900" d="m379.49606 150.49344l0 0c0 -9.941132 8.058868 -18.0 18.0 -18.0l0 0c4.7738953 0 9.352264 1.8964233 12.727936 5.2720795c3.3756409 3.3756561 5.272064 7.9540253 5.272064 12.727921l0 0c0 9.941132 -8.058868 18.0 -18.0 18.0l0 0c-9.941132 0 -18.0 -8.058868 -18.0 -18.0z" fill-rule="nonzero"></path><path stroke="#000000" stroke-width="1.0" stroke-linejoin="round" stroke-linecap="butt" d="m379.49606 150.49344l0 0c0 -9.941132 8.058868 -18.0 18.0 -18.0l0 0c4.7738953 0 9.352264 1.8964233 12.727936 5.2720795c3.3756409 3.3756561 5.272064 7.9540253 5.272064 12.727921l0 0c0 9.941132 -8.058868 18.0 -18.0 18.0l0 0c-9.941132 0 -18.0 -8.058868 -18.0 -18.0z" fill-rule="nonzero"></path><path fill="#6aa84f" d="m328.01575 283.99475l0 0c0 -9.941132 8.058868 -18.0 18.0 -18.0l0 0c4.7738953 0 9.352264 1.8964233 12.727936 5.272064c3.3756409 3.3756714 5.272064 7.9540405 5.272064 12.727936l0 0c0 9.941132 -8.058868 18.0 -18.0 18.0l0 0c-9.941132 0 -18.0 -8.058868 -18.0 -18.0z" fill-rule="nonzero"></path><path stroke="#000000" stroke-width="1.0" stroke-linejoin="round" stroke-linecap="butt" d="m328.01575 283.99475l0 0c0 -9.941132 8.058868 -18.0 18.0 -18.0l0 0c4.7738953 0 9.352264 1.8964233 12.727936 5.272064c3.3756409 3.3756714 5.272064 7.9540405 5.272064 12.727936l0 0c0 9.941132 -8.058868 18.0 -18.0 18.0l0 0c-9.941132 0 -18.0 -8.058868 -18.0 -18.0z" fill-rule="nonzero"></path><path fill="#ff9900" d="m409.01575 308.0l0 0c0 -9.941132 8.058868 -18.0 18.0 -18.0l0 0c4.7738953 0 9.352264 1.8964233 12.727936 5.272064c3.3756409 3.3756714 5.272064 7.9540405 5.272064 12.727936l0 0c0 9.941132 -8.058868 18.0 -18.0 18.0l0 0c-9.941132 0 -18.0 -8.058868 -18.0 -18.0z" fill-rule="nonzero"></path><path stroke="#000000" stroke-width="1.0" stroke-linejoin="round" stroke-linecap="butt" d="m409.01575 308.0l0 0c0 -9.941132 8.058868 -18.0 18.0 -18.0l0 0c4.7738953 0 9.352264 1.8964233 12.727936 5.272064c3.3756409 3.3756714 5.272064 7.9540405 5.272064 12.727936l0 0c0 9.941132 -8.058868 18.0 -18.0 18.0l0 0c-9.941132 0 -18.0 -8.058868 -18.0 -18.0z" fill-rule="nonzero"></path><path fill="#ff9900" d="m320.01575 385.0l0 0c0 -9.941132 8.058868 -18.0 18.0 -18.0l0 0c4.7738953 0 9.352264 1.8964233 12.727936 5.272064c3.3756409 3.3756714 5.272064 7.9540405 5.272064 12.727936l0 0c0 9.941132 -8.058868 18.0 -18.0 18.0l0 0c-9.941132 0 -18.0 -8.058868 -18.0 -18.0z" fill-rule="nonzero"></path><path stroke="#000000" stroke-width="1.0" stroke-linejoin="round" stroke-linecap="butt" d="m320.01575 385.0l0 0c0 -9.941132 8.058868 -18.0 18.0 -18.0l0 0c4.7738953 0 9.352264 1.8964233 12.727936 5.272064c3.3756409 3.3756714 5.272064 7.9540405 5.272064 12.727936l0 0c0 9.941132 -8.058868 18.0 -18.0 18.0l0 0c-9.941132 0 -18.0 -8.058868 -18.0 -18.0z" fill-rule="nonzero"></path><path fill="#ff9900" d="m436.0 243.72704l0 0c0 -9.941132 8.058868 -18.0 18.0 -18.0l0 0c4.7738953 0 9.352264 1.8964233 12.727936 5.2720795c3.3756409 3.3756561 5.272064 7.9540253 5.272064 12.727921l0 0c0 9.941132 -8.058868 17.999985 -18.0 17.999985l0 0c-9.941132 0 -18.0 -8.058853 -18.0 -17.999985z" fill-rule="nonzero"></path><path stroke="#000000" stroke-width="1.0" stroke-linejoin="round" stroke-linecap="butt" d="m436.0 243.72704l0 0c0 -9.941132 8.058868 -18.0 18.0 -18.0l0 0c4.7738953 0 9.352264 1.8964233 12.727936 5.2720795c3.3756409 3.3756561 5.272064 7.9540253 5.272064 12.727921l0 0c0 9.941132 -8.058868 17.999985 -18.0 17.999985l0 0c-9.941132 0 -18.0 -8.058853 -18.0 -17.999985z" fill-rule="nonzero"></path><path fill="#6aa84f" d="m328.01575 214.00525l0 0c0 -9.941132 8.058868 -18.0 18.0 -18.0l0 0c4.7738953 0 9.352264 1.8964233 12.727936 5.2720795c3.3756409 3.3756561 5.272064 7.9540253 5.272064 12.727921l0 0c0 9.941132 -8.058868 18.0 -18.0 18.0l0 0c-9.941132 0 -18.0 -8.058868 -18.0 -18.0z" fill-rule="nonzero"></path><path stroke="#000000" stroke-width="1.0" stroke-linejoin="round" stroke-linecap="butt" d="m328.01575 214.00525l0 0c0 -9.941132 8.058868 -18.0 18.0 -18.0l0 0c4.7738953 0 9.352264 1.8964233 12.727936 5.2720795c3.3756409 3.3756561 5.272064 7.9540253 5.272064 12.727921l0 0c0 9.941132 -8.058868 18.0 -18.0 18.0l0 0c-9.941132 0 -18.0 -8.058868 -18.0 -18.0z" fill-rule="nonzero"></path><path fill="#6aa84f" d="m445.01575 104.0l0 0c0 -9.941124 8.058868 -18.0 18.0 -18.0l0 0c4.7738953 0 9.352264 1.8964233 12.727936 5.2720795c3.3756409 3.3756561 5.272064 7.9540253 5.272064 12.727921l0 0c0 9.941124 -8.058868 18.0 -18.0 18.0l0 0c-9.941132 0 -18.0 -8.058876 -18.0 -18.0z" fill-rule="nonzero"></path><path stroke="#000000" stroke-width="1.0" stroke-linejoin="round" stroke-linecap="butt" d="m445.01575 104.0l0 0c0 -9.941124 8.058868 -18.0 18.0 -18.0l0 0c4.7738953 0 9.352264 1.8964233 12.727936 5.2720795c3.3756409 3.3756561 5.272064 7.9540253 5.272064 12.727921l0 0c0 9.941124 -8.058868 18.0 -18.0 18.0l0 0c-9.941132 0 -18.0 -8.058876 -18.0 -18.0z" fill-rule="nonzero"></path><path fill="#6aa84f" d="m445.01575 383.45407l0 0c0 -9.941132 8.058868 -18.0 18.0 -18.0l0 0c4.7738953 0 9.352264 1.8964233 12.727936 5.272064c3.3756409 3.3756714 5.272064 7.9540405 5.272064 12.727936l0 0c0 9.941132 -8.058868 18.0 -18.0 18.0l0 0c-9.941132 0 -18.0 -8.058868 -18.0 -18.0z" fill-rule="nonzero"></path><path stroke="#000000" stroke-width="1.0" stroke-linejoin="round" stroke-linecap="butt" d="m445.01575 383.45407l0 0c0 -9.941132 8.058868 -18.0 18.0 -18.0l0 0c4.7738953 0 9.352264 1.8964233 12.727936 5.272064c3.3756409 3.3756714 5.272064 7.9540405 5.272064 12.727936l0 0c0 9.941132 -8.058868 18.0 -18.0 18.0l0 0c-9.941132 0 -18.0 -8.058868 -18.0 -18.0z" fill-rule="nonzero"></path><path fill="#cc0000" d="m542.01575 38.0l0 0c0 -9.941126 8.058899 -18.0 18.0 -18.0l0 0c4.773926 0 9.352295 1.8964233 12.727905 5.2720776c3.3756714 3.3756561 5.2720947 7.954027 5.2720947 12.727922l0 0c0 9.941124 -8.058899 18.0 -18.0 18.0l0 0c-9.941101 0 -18.0 -8.058876 -18.0 -18.0z" fill-rule="nonzero"></path><path stroke="#000000" stroke-width="1.0" stroke-linejoin="round" stroke-linecap="butt" d="m542.01575 38.0l0 0c0 -9.941126 8.058899 -18.0 18.0 -18.0l0 0c4.773926 0 9.352295 1.8964233 12.727905 5.2720776c3.3756714 3.3756561 5.2720947 7.954027 5.2720947 12.727922l0 0c0 9.941124 -8.058899 18.0 -18.0 18.0l0 0c-9.941101 0 -18.0 -8.058876 -18.0 -18.0z" fill-rule="nonzero"></path><path fill="#cc0000" d="m392.01575 18.0l0 0c0 -9.941126 8.058868 -18.0 18.0 -18.0l0 0c4.7738953 0 9.352264 1.8964231 12.727936 5.272078c3.3756409 3.3756547 5.272064 7.954025 5.272064 12.727922l0 0c0 9.941126 -8.058868 18.0 -18.0 18.0l0 0c-9.941132 0 -18.0 -8.058874 -18.0 -18.0z" fill-rule="nonzero"></path><path stroke="#000000" stroke-width="1.0" stroke-linejoin="round" stroke-linecap="butt" d="m392.01575 18.0l0 0c0 -9.941126 8.058868 -18.0 18.0 -18.0l0 0c4.7738953 0 9.352264 1.8964231 12.727936 5.272078c3.3756409 3.3756547 5.272064 7.954025 5.272064 12.727922l0 0c0 9.941126 -8.058868 18.0 -18.0 18.0l0 0c-9.941132 0 -18.0 -8.058874 -18.0 -18.0z" fill-rule="nonzero"></path><path fill="#cc0000" d="m538.0 296.72702l0 0c0 -9.941101 8.058899 -18.0 18.0 -18.0l0 0c4.773926 0 9.352295 1.8964233 12.727905 5.2720947c3.3756714 3.3756409 5.2720947 7.95401 5.2720947 12.727905l0 0c0 9.941132 -8.058899 18.0 -18.0 18.0l0 0c-9.941101 0 -18.0 -8.058868 -18.0 -18.0z" fill-rule="nonzero"></path><path stroke="#000000" stroke-width="1.0" stroke-linejoin="round" stroke-linecap="butt" d="m538.0 296.72702l0 0c0 -9.941101 8.058899 -18.0 18.0 -18.0l0 0c4.773926 0 9.352295 1.8964233 12.727905 5.2720947c3.3756714 3.3756409 5.2720947 7.95401 5.2720947 12.727905l0 0c0 9.941132 -8.058899 18.0 -18.0 18.0l0 0c-9.941101 0 -18.0 -8.058868 -18.0 -18.0z" fill-rule="nonzero"></path><path fill="#cc0000" d="m379.49606 480.0l0 0c0 -9.941132 8.058868 -18.0 18.0 -18.0l0 0c4.7738953 0 9.352264 1.8964233 12.727936 5.272064c3.3756409 3.3756714 5.272064 7.9540405 5.272064 12.727936l0 0c0 9.941132 -8.058868 18.0 -18.0 18.0l0 0c-9.941132 0 -18.0 -8.058868 -18.0 -18.0z" fill-rule="nonzero"></path><path stroke="#000000" stroke-width="1.0" stroke-linejoin="round" stroke-linecap="butt" d="m379.49606 480.0l0 0c0 -9.941132 8.058868 -18.0 18.0 -18.0l0 0c4.7738953 0 9.352264 1.8964233 12.727936 5.272064c3.3756409 3.3756714 5.272064 7.9540405 5.272064 12.727936l0 0c0 9.941132 -8.058868 18.0 -18.0 18.0l0 0c-9.941132 0 -18.0 -8.058868 -18.0 -18.0z" fill-rule="nonzero"></path><path fill="#000000" fill-opacity="0.0" d="m293.0 23.0l44.0 0l0 36.0l-44.0 0z" fill-rule="nonzero"></path><path fill="#000000" d="m303.5 49.92l0 -13.59375l6.03125 0q1.8125 0 2.75 0.359375q0.953125 0.359375 1.515625 1.296875q0.5625 0.921875 0.5625 2.046875q0 1.453125 -0.9375 2.453125q-0.921875 0.984375 -2.890625 1.25q0.71875 0.34375 1.09375 0.671875q0.78125 0.734375 1.484375 1.8125l2.375 3.703125l-2.265625 0l-1.796875 -2.828125q-0.796875 -1.21875 -1.3125 -1.875q-0.5 -0.65625 -0.90625 -0.90625q-0.40625 -0.265625 -0.8125 -0.359375q-0.3125 -0.078125 -1.015625 -0.078125l-2.078125 0l0 6.046875l-1.796875 0zm1.796875 -7.59375l3.859375 0q1.234375 0 1.921875 -0.25q0.703125 -0.265625 1.0625 -0.828125q0.375 -0.5625 0.375 -1.21875q0 -0.96875 -0.703125 -1.578125q-0.703125 -0.625 -2.21875 -0.625l-4.296875 0l0 4.5z" fill-rule="nonzero"></path><path fill="#000000" fill-opacity="0.0" d="m340.72794 106.72792l44.031494 31.02362" fill-rule="nonzero"></path><path stroke="#000000" stroke-width="1.0" stroke-linejoin="round" stroke-linecap="butt" d="m340.7279 106.72793l39.12671 27.567802" fill-rule="evenodd"></path><path fill="#000000" stroke="#000000" stroke-width="1.0" stroke-linecap="butt" d="m378.90326 135.64597l4.6611023 1.2635651l-2.7583923 -3.9640503z" fill-rule="evenodd"></path><path fill="#000000" fill-opacity="0.0" d="m346.01575 232.00525l0 33.984253" fill-rule="nonzero"></path><path stroke="#000000" stroke-width="1.0" stroke-linejoin="round" stroke-linecap="butt" d="m346.01575 232.00525l0 27.984253" fill-rule="evenodd"></path><path fill="#000000" stroke="#000000" stroke-width="1.0" stroke-linecap="butt" d="m344.364 259.9895l1.6517334 4.538086l1.6517334 -4.538086z" fill-rule="evenodd"></path><path fill="#000000" fill-opacity="0.0" d="m358.74368 296.7227l91.55905 74.01575" fill-rule="nonzero"></path><path stroke="#000000" stroke-width="1.0" stroke-linejoin="round" stroke-linecap="butt" d="m358.74368 296.72266l86.893005 70.243744" fill-rule="evenodd"></path><path fill="#000000" stroke="#000000" stroke-width="1.0" stroke-linecap="butt" d="m444.5983 368.25095l4.567566 1.5684509l-2.4907837 -4.1374817z" fill-rule="evenodd"></path><path fill="#000000" fill-opacity="0.0" d="m454.0 261.72702l-26.992126 28.283478" fill-rule="nonzero"></path><path stroke="#000000" stroke-width="1.0" stroke-linejoin="round" stroke-linecap="butt" d="m454.0 261.72702l-22.849731 23.942902" fill-rule="evenodd"></path><path fill="#000000" stroke="#000000" stroke-width="1.0" stroke-linecap="butt" d="m429.95535 284.52957l-1.9381714 4.42334l4.328003 -2.1426392z" fill-rule="evenodd"></path><path fill="#000000" fill-opacity="0.0" d="m481.01575 104.0l66.2677 -53.259842" fill-rule="nonzero"></path><path stroke="#000000" stroke-width="1.0" stroke-linejoin="round" stroke-linecap="butt" d="m481.01575 104.0l61.590942 -49.501114" fill-rule="evenodd"></path><path fill="#000000" stroke="#000000" stroke-width="1.0" stroke-linecap="butt" d="m543.6415 55.786346l2.5025024 -4.130371l-4.5720215 1.5554581z" fill-rule="evenodd"></path><path fill="#000000" fill-opacity="0.0" d="m340.72794 81.27208l56.566925 -50.55118" fill-rule="nonzero"></path><path stroke="#000000" stroke-width="1.0" stroke-linejoin="round" stroke-linecap="butt" d="m340.7279 81.27208l52.09308 -46.55311" fill-rule="evenodd"></path><path fill="#000000" stroke="#000000" stroke-width="1.0" stroke-linecap="butt" d="m393.92163 35.950573l2.2831726 -4.2555428l-4.4844055 1.7923393z" fill-rule="evenodd"></path><path fill="#000000" fill-opacity="0.0" d="m450.2878 396.18198l-40.06299 71.08664" fill-rule="nonzero"></path><path stroke="#000000" stroke-width="1.0" stroke-linejoin="round" stroke-linecap="butt" d="m450.2878 396.182l-37.117126 65.85959" fill-rule="evenodd"></path><path fill="#000000" stroke="#000000" stroke-width="1.0" stroke-linecap="butt" d="m411.73172 461.23062l-0.78915405 4.764435l3.6670532 -3.142517z" fill-rule="evenodd"></path><path fill="#000000" fill-opacity="0.0" d="m445.01575 308.0l92.97638 -11.275604" fill-rule="nonzero"></path><path stroke="#000000" stroke-width="1.0" stroke-linejoin="round" stroke-linecap="butt" d="m445.01575 308.0l87.02002 -10.553223" fill-rule="evenodd"></path><path fill="#000000" stroke="#000000" stroke-width="1.0" stroke-linecap="butt" d="m532.2346 299.0865l4.3062134 -2.1860657l-4.7039185 -1.0933838z" fill-rule="evenodd"></path></g></svg>

