<?xml version="1.0" encoding="UTF-8" standalone="no"?>
<!-- Created with Inkscape (http://www.inkscape.org/) -->

<svg
   xmlns:dc="http://purl.org/dc/elements/1.1/"
   xmlns:cc="http://creativecommons.org/ns#"
   xmlns:rdf="http://www.w3.org/1999/02/22-rdf-syntax-ns#"
   xmlns:svg="http://www.w3.org/2000/svg"
   xmlns="http://www.w3.org/2000/svg"
   xmlns:sodipodi="http://sodipodi.sourceforge.net/DTD/sodipodi-0.dtd"
   xmlns:inkscape="http://www.inkscape.org/namespaces/inkscape"
   id="svg4136"
   version="1.1"
   inkscape:version="0.91 r13725"
   xml:space="preserve"
   width="900"
   height="675"
   viewBox="0 0 900 675"
   sodipodi:docname="multi_layer_grid_index.svg"><metadata
     id="metadata4142"><rdf:RDF><cc:Work
         rdf:about=""><dc:format>image/svg+xml</dc:format><dc:type
           rdf:resource="http://purl.org/dc/dcmitype/StillImage" /><dc:title></dc:title></cc:Work></rdf:RDF></metadata><defs
     id="defs4140"><clipPath
       clipPathUnits="userSpaceOnUse"
       id="clipPath4150"><path
         d="m 0,1.2207e-4 720,0 0,539.99999793 -720,0 L 0,1.2207e-4 Z"
         id="path4152"
         inkscape:connector-curvature="0"
         style="clip-rule:evenodd" /></clipPath><clipPath
       clipPathUnits="userSpaceOnUse"
       id="clipPath4216"><path
         d="M 1.0729e-5,0 720.00001,0 l 0,540 -719.999999271,0 0,-540 z"
         id="path4218"
         inkscape:connector-curvature="0"
         style="clip-rule:evenodd" /></clipPath><clipPath
       clipPathUnits="userSpaceOnUse"
       id="clipPath4228"><path
         d="M 1.0729e-5,0 720.00001,0 l 0,540 -719.999999271,0 0,-540 z"
         id="path4230"
         inkscape:connector-curvature="0"
         style="clip-rule:evenodd" /></clipPath><clipPath
       clipPathUnits="userSpaceOnUse"
       id="clipPath4240"><path
         d="M 1.0729e-5,0 720.00001,0 l 0,540 -719.999999271,0 0,-540 z"
         id="path4242"
         inkscape:connector-curvature="0"
         style="clip-rule:evenodd" /></clipPath><clipPath
       clipPathUnits="userSpaceOnUse"
       id="clipPath4252"><path
         d="M 1.0729e-5,0 720.00001,0 l 0,540 -719.999999271,0 0,-540 z"
         id="path4254"
         inkscape:connector-curvature="0"
         style="clip-rule:evenodd" /></clipPath><clipPath
       clipPathUnits="userSpaceOnUse"
       id="clipPath4264"><path
         d="M 1.0729e-5,0 720.00001,0 l 0,540 -719.999999271,0 0,-540 z"
         id="path4266"
         inkscape:connector-curvature="0"
         style="clip-rule:evenodd" /></clipPath><clipPath
       clipPathUnits="userSpaceOnUse"
       id="clipPath4276"><path
         d="M 1.0729e-5,0 720.00001,0 l 0,540 -719.999999271,0 0,-540 z"
         id="path4278"
         inkscape:connector-curvature="0"
         style="clip-rule:evenodd" /></clipPath><clipPath
       clipPathUnits="userSpaceOnUse"
       id="clipPath4288"><path
         d="M 1.0729e-5,0 720.00001,0 l 0,540 -719.999999271,0 0,-540 z"
         id="path4290"
         inkscape:connector-curvature="0"
         style="clip-rule:evenodd" /></clipPath><clipPath
       clipPathUnits="userSpaceOnUse"
       id="clipPath4300"><path
         d="M 1.0729e-5,0 720.00001,0 l 0,540 -719.999999271,0 0,-540 z"
         id="path4302"
         inkscape:connector-curvature="0"
         style="clip-rule:evenodd" /></clipPath><clipPath
       clipPathUnits="userSpaceOnUse"
       id="clipPath4312"><path
         d="M 1.0729e-5,0 720.00001,0 l 0,540 -719.999999271,0 0,-540 z"
         id="path4314"
         inkscape:connector-curvature="0"
         style="clip-rule:evenodd" /></clipPath><clipPath
       clipPathUnits="userSpaceOnUse"
       id="clipPath4324"><path
         d="M 1.0729e-5,0 720.00001,0 l 0,540 -719.999999271,0 0,-540 z"
         id="path4326"
         inkscape:connector-curvature="0"
         style="clip-rule:evenodd" /></clipPath><clipPath
       clipPathUnits="userSpaceOnUse"
       id="clipPath4336"><path
         d="M 1.0729e-5,0 720.00001,0 l 0,540 -719.999999271,0 0,-540 z"
         id="path4338"
         inkscape:connector-curvature="0"
         style="clip-rule:evenodd" /></clipPath><clipPath
       clipPathUnits="userSpaceOnUse"
       id="clipPath4348"><path
         d="M 1.0729e-5,0 720.00001,0 l 0,540 -719.999999271,0 0,-540 z"
         id="path4350"
         inkscape:connector-curvature="0"
         style="clip-rule:evenodd" /></clipPath><clipPath
       clipPathUnits="userSpaceOnUse"
       id="clipPath4360"><path
         d="M 1.0729e-5,0 720.00001,0 l 0,540 -719.999999271,0 0,-540 z"
         id="path4362"
         inkscape:connector-curvature="0"
         style="clip-rule:evenodd" /></clipPath><clipPath
       clipPathUnits="userSpaceOnUse"
       id="clipPath4372"><path
         d="M 1.0729e-5,0 720.00001,0 l 0,540 -719.999999271,0 0,-540 z"
         id="path4374"
         inkscape:connector-curvature="0"
         style="clip-rule:evenodd" /></clipPath><clipPath
       clipPathUnits="userSpaceOnUse"
       id="clipPath4384"><path
         d="M 1.0729e-5,0 720.00001,0 l 0,540 -719.999999271,0 0,-540 z"
         id="path4386"
         inkscape:connector-curvature="0"
         style="clip-rule:evenodd" /></clipPath><clipPath
       clipPathUnits="userSpaceOnUse"
       id="clipPath4396"><path
         d="M 1.0729e-5,0 720.00001,0 l 0,540 -719.999999271,0 0,-540 z"
         id="path4398"
         inkscape:connector-curvature="0"
         style="clip-rule:evenodd" /></clipPath><clipPath
       clipPathUnits="userSpaceOnUse"
       id="clipPath4430"><path
         d="M 1.0729e-5,0 720.00001,0 l 0,540 -719.999999271,0 0,-540 z"
         id="path4432"
         inkscape:connector-curvature="0"
         style="clip-rule:evenodd" /></clipPath><clipPath
       clipPathUnits="userSpaceOnUse"
       id="clipPath4442"><path
         d="M 1.0729e-5,0 720.00001,0 l 0,540 -719.999999271,0 0,-540 z"
         id="path4444"
         inkscape:connector-curvature="0"
         style="clip-rule:evenodd" /></clipPath><clipPath
       clipPathUnits="userSpaceOnUse"
       id="clipPath4454"><path
         d="M 1.0729e-5,0 720.00001,0 l 0,540 -719.999999271,0 0,-540 z"
         id="path4456"
         inkscape:connector-curvature="0"
         style="clip-rule:evenodd" /></clipPath><clipPath
       clipPathUnits="userSpaceOnUse"
       id="clipPath4466"><path
         d="M 1.0729e-5,0 720.00001,0 l 0,540 -719.999999271,0 0,-540 z"
         id="path4468"
         inkscape:connector-curvature="0"
         style="clip-rule:evenodd" /></clipPath><clipPath
       clipPathUnits="userSpaceOnUse"
       id="clipPath4478"><path
         d="M 1.0729e-5,0 720.00001,0 l 0,540 -719.999999271,0 0,-540 z"
         id="path4480"
         inkscape:connector-curvature="0"
         style="clip-rule:evenodd" /></clipPath><clipPath
       clipPathUnits="userSpaceOnUse"
       id="clipPath4490"><path
         d="M 1.0729e-5,0 720.00001,0 l 0,540 -719.999999271,0 0,-540 z"
         id="path4492"
         inkscape:connector-curvature="0"
         style="clip-rule:evenodd" /></clipPath><clipPath
       clipPathUnits="userSpaceOnUse"
       id="clipPath4502"><path
         d="M 1.0729e-5,0 720.00001,0 l 0,540 -719.999999271,0 0,-540 z"
         id="path4504"
         inkscape:connector-curvature="0"
         style="clip-rule:evenodd" /></clipPath><clipPath
       clipPathUnits="userSpaceOnUse"
       id="clipPath4514"><path
         d="M 1.0729e-5,0 720.00001,0 l 0,540 -719.999999271,0 0,-540 z"
         id="path4516"
         inkscape:connector-curvature="0"
         style="clip-rule:evenodd" /></clipPath><clipPath
       clipPathUnits="userSpaceOnUse"
       id="clipPath4536"><path
         d="M 1.0729e-5,0 720.00001,0 l 0,540 -719.999999271,0 0,-540 z"
         id="path4538"
         inkscape:connector-curvature="0"
         style="clip-rule:evenodd" /></clipPath><clipPath
       clipPathUnits="userSpaceOnUse"
       id="clipPath4548"><path
         d="M 1.0729e-5,0 720.00001,0 l 0,540 -719.999999271,0 0,-540 z"
         id="path4550"
         inkscape:connector-curvature="0"
         style="clip-rule:evenodd" /></clipPath><clipPath
       clipPathUnits="userSpaceOnUse"
       id="clipPath4560"><path
         d="M 1.0729e-5,0 720.00001,0 l 0,540 -719.999999271,0 0,-540 z"
         id="path4562"
         inkscape:connector-curvature="0"
         style="clip-rule:evenodd" /></clipPath></defs><sodipodi:namedview
     pagecolor="#ffffff"
     bordercolor="#666666"
     borderopacity="1"
     objecttolerance="10"
     gridtolerance="10"
     guidetolerance="10"
     inkscape:pageopacity="0"
     inkscape:pageshadow="2"
     inkscape:window-width="1920"
     inkscape:window-height="1018"
     id="namedview4138"
     showgrid="false"
     inkscape:zoom="1.2133333"
     inkscape:cx="450"
     inkscape:cy="337.5"
     inkscape:window-x="-8"
     inkscape:window-y="-8"
     inkscape:window-maximized="1"
     inkscape:current-layer="g4144" /><g
     id="g4144"
     inkscape:groupmode="layer"
     inkscape:label="figure_source"
     transform="matrix(1.25,0,0,-1.25,0,675)"><path
       d="m 128,366.06 60,0 0,29.2 -60,0 0,-29.2 z"
       style="fill:#606372;fill-opacity:1;fill-rule:evenodd;stroke:none"
       id="path4156"
       inkscape:connector-curvature="0" /><path
       d="m 188,366.06 60,0 0,29.2 -60,0 0,-29.2 z"
       style="fill:#606372;fill-opacity:1;fill-rule:evenodd;stroke:none"
       id="path4158"
       inkscape:connector-curvature="0" /><path
       d="m 248,366.06 60,0 0,29.2 -60,0 0,-29.2 z"
       style="fill:#606372;fill-opacity:1;fill-rule:evenodd;stroke:none"
       id="path4160"
       inkscape:connector-curvature="0" /><path
       d="m 308,366.06 60,0 0,29.2 -60,0 0,-29.2 z"
       style="fill:#606372;fill-opacity:1;fill-rule:evenodd;stroke:none"
       id="path4162"
       inkscape:connector-curvature="0" /><path
       d="m 368,366.06 60,0 0,29.2 -60,0 0,-29.2 z"
       style="fill:#606372;fill-opacity:1;fill-rule:evenodd;stroke:none"
       id="path4164"
       inkscape:connector-curvature="0" /><path
       d="m 428,366.06 60,0 0,29.2 -60,0 0,-29.2 z"
       style="fill:#606372;fill-opacity:1;fill-rule:evenodd;stroke:none"
       id="path4166"
       inkscape:connector-curvature="0" /><path
       d="m 488,366.06 60,0 0,29.2 -60,0 0,-29.2 z"
       style="fill:#606372;fill-opacity:1;fill-rule:evenodd;stroke:none"
       id="path4168"
       inkscape:connector-curvature="0" /><path
       d="m 548,366.06 60,0 0,29.2 -60,0 0,-29.2 z"
       style="fill:#606372;fill-opacity:1;fill-rule:evenodd;stroke:none"
       id="path4170"
       inkscape:connector-curvature="0" /><path
       d="m 128,336.86 60,0 0,29.2 -60,0 0,-29.2 z"
       style="fill:#d2d3d5;fill-opacity:1;fill-rule:evenodd;stroke:none"
       id="path4172"
       inkscape:connector-curvature="0" /><path
       d="m 188,336.86 60,0 0,29.2 -60,0 0,-29.2 z"
       style="fill:#d2d3d5;fill-opacity:1;fill-rule:evenodd;stroke:none"
       id="path4174"
       inkscape:connector-curvature="0" /><path
       d="m 248,336.86 60,0 0,29.2 -60,0 0,-29.2 z"
       style="fill:#d2d3d5;fill-opacity:1;fill-rule:evenodd;stroke:none"
       id="path4176"
       inkscape:connector-curvature="0" /><path
       d="m 308,336.86 60,0 0,29.2 -60,0 0,-29.2 z"
       style="fill:#d2d3d5;fill-opacity:1;fill-rule:evenodd;stroke:none"
       id="path4178"
       inkscape:connector-curvature="0" /><path
       d="m 368,336.86 60,0 0,29.2 -60,0 0,-29.2 z"
       style="fill:#d2d3d5;fill-opacity:1;fill-rule:evenodd;stroke:none"
       id="path4180"
       inkscape:connector-curvature="0" /><path
       d="m 428,336.86 60,0 0,29.2 -60,0 0,-29.2 z"
       style="fill:#d2d3d5;fill-opacity:1;fill-rule:evenodd;stroke:none"
       id="path4182"
       inkscape:connector-curvature="0" /><path
       d="m 488,336.86 60,0 0,29.2 -60,0 0,-29.2 z"
       style="fill:#d2d3d5;fill-opacity:1;fill-rule:evenodd;stroke:none"
       id="path4184"
       inkscape:connector-curvature="0" /><path
       d="m 548,336.86 60,0 0,29.2 -60,0 0,-29.2 z"
       style="fill:#d2d3d5;fill-opacity:1;fill-rule:evenodd;stroke:none"
       id="path4186"
       inkscape:connector-curvature="0" /><path
       d="m 188,395.76 0,-59.4"
       style="fill:none;stroke:#ffffff;stroke-width:1;stroke-linecap:butt;stroke-linejoin:round;stroke-miterlimit:10;stroke-dasharray:none;stroke-opacity:1"
       id="path4188"
       inkscape:connector-curvature="0" /><path
       d="m 248,395.76 0,-59.4"
       style="fill:none;stroke:#ffffff;stroke-width:1;stroke-linecap:butt;stroke-linejoin:round;stroke-miterlimit:10;stroke-dasharray:none;stroke-opacity:1"
       id="path4190"
       inkscape:connector-curvature="0" /><path
       d="m 308,395.76 0,-59.4"
       style="fill:none;stroke:#ffffff;stroke-width:1;stroke-linecap:butt;stroke-linejoin:round;stroke-miterlimit:10;stroke-dasharray:none;stroke-opacity:1"
       id="path4192"
       inkscape:connector-curvature="0" /><path
       d="m 368,395.76 0,-59.4"
       style="fill:none;stroke:#ffffff;stroke-width:1;stroke-linecap:butt;stroke-linejoin:round;stroke-miterlimit:10;stroke-dasharray:none;stroke-opacity:1"
       id="path4194"
       inkscape:connector-curvature="0" /><path
       d="m 428,395.76 0,-59.4"
       style="fill:none;stroke:#ffffff;stroke-width:1;stroke-linecap:butt;stroke-linejoin:round;stroke-miterlimit:10;stroke-dasharray:none;stroke-opacity:1"
       id="path4196"
       inkscape:connector-curvature="0" /><path
       d="m 488,395.76 0,-59.4"
       style="fill:none;stroke:#ffffff;stroke-width:1;stroke-linecap:butt;stroke-linejoin:round;stroke-miterlimit:10;stroke-dasharray:none;stroke-opacity:1"
       id="path4198"
       inkscape:connector-curvature="0" /><path
       d="m 548,395.76 0,-59.4"
       style="fill:none;stroke:#ffffff;stroke-width:1;stroke-linecap:butt;stroke-linejoin:round;stroke-miterlimit:10;stroke-dasharray:none;stroke-opacity:1"
       id="path4200"
       inkscape:connector-curvature="0" /><path
       d="m 127.5,366.06 481,0"
       style="fill:none;stroke:#ffffff;stroke-width:3;stroke-linecap:butt;stroke-linejoin:round;stroke-miterlimit:10;stroke-dasharray:none;stroke-opacity:1"
       id="path4202"
       inkscape:connector-curvature="0" /><path
       d="m 128,395.76 0,-59.4"
       style="fill:none;stroke:#ffffff;stroke-width:1;stroke-linecap:butt;stroke-linejoin:round;stroke-miterlimit:10;stroke-dasharray:none;stroke-opacity:1"
       id="path4204"
       inkscape:connector-curvature="0" /><path
       d="m 608,395.76 0,-59.4"
       style="fill:none;stroke:#ffffff;stroke-width:1;stroke-linecap:butt;stroke-linejoin:round;stroke-miterlimit:10;stroke-dasharray:none;stroke-opacity:1"
       id="path4206"
       inkscape:connector-curvature="0" /><path
       d="m 127.5,395.26 481,0"
       style="fill:none;stroke:#ffffff;stroke-width:1;stroke-linecap:butt;stroke-linejoin:round;stroke-miterlimit:10;stroke-dasharray:none;stroke-opacity:1"
       id="path4208"
       inkscape:connector-curvature="0" /><path
       d="m 127.5,336.86 481,0"
       style="fill:none;stroke:#ffffff;stroke-width:1;stroke-linecap:butt;stroke-linejoin:round;stroke-miterlimit:10;stroke-dasharray:none;stroke-opacity:1"
       id="path4210"
       inkscape:connector-curvature="0" /><g
       id="g4212"><g
         id="g4214"
         clip-path="url(#clipPath4216)"><text
           transform="matrix(1,0,0,-1,154.58,379.01)"
           style="font-variant:normal;font-weight:bold;font-size:13.56000042px;font-family:Calibri;-inkscape-font-specification:'Calibri Bold';writing-mode:lr-tb;fill:#ffffff;fill-opacity:1;fill-rule:nonzero;stroke:none"
           id="text4220"><tspan
             x="0"
             y="0"
             id="tspan4222">1</tspan></text>
</g></g><g
       id="g4224"><g
         id="g4226"
         clip-path="url(#clipPath4228)"><text
           transform="matrix(1,0,0,-1,214.61,379.01)"
           style="font-variant:normal;font-weight:bold;font-size:13.56000042px;font-family:Calibri;-inkscape-font-specification:'Calibri Bold';writing-mode:lr-tb;fill:#ffffff;fill-opacity:1;fill-rule:nonzero;stroke:none"
           id="text4232"><tspan
             x="0"
             y="0"
             id="tspan4234">2</tspan></text>
</g></g><g
       id="g4236"><g
         id="g4238"
         clip-path="url(#clipPath4240)"><text
           transform="matrix(1,0,0,-1,274.61,379.01)"
           style="font-variant:normal;font-weight:bold;font-size:13.56000042px;font-family:Calibri;-inkscape-font-specification:'Calibri Bold';writing-mode:lr-tb;fill:#ffffff;fill-opacity:1;fill-rule:nonzero;stroke:none"
           id="text4244"><tspan
             x="0"
             y="0"
             id="tspan4246">3</tspan></text>
</g></g><g
       id="g4248"><g
         id="g4250"
         clip-path="url(#clipPath4252)"><text
           transform="matrix(1,0,0,-1,334.63,379.01)"
           style="font-variant:normal;font-weight:bold;font-size:13.56000042px;font-family:Calibri;-inkscape-font-specification:'Calibri Bold';writing-mode:lr-tb;fill:#ffffff;fill-opacity:1;fill-rule:nonzero;stroke:none"
           id="text4256"><tspan
             x="0"
             y="0"
             id="tspan4258">4</tspan></text>
</g></g><g
       id="g4260"><g
         id="g4262"
         clip-path="url(#clipPath4264)"><text
           transform="matrix(1,0,0,-1,394.63,379.01)"
           style="font-variant:normal;font-weight:bold;font-size:13.56000042px;font-family:Calibri;-inkscape-font-specification:'Calibri Bold';writing-mode:lr-tb;fill:#ffffff;fill-opacity:1;fill-rule:nonzero;stroke:none"
           id="text4268"><tspan
             x="0"
             y="0"
             id="tspan4270">5</tspan></text>
</g></g><g
       id="g4272"><g
         id="g4274"
         clip-path="url(#clipPath4276)"><text
           transform="matrix(1,0,0,-1,454.63,379.01)"
           style="font-variant:normal;font-weight:bold;font-size:13.56000042px;font-family:Calibri;-inkscape-font-specification:'Calibri Bold';writing-mode:lr-tb;fill:#ffffff;fill-opacity:1;fill-rule:nonzero;stroke:none"
           id="text4280"><tspan
             x="0"
             y="0"
             id="tspan4282">6</tspan></text>
</g></g><g
       id="g4284"><g
         id="g4286"
         clip-path="url(#clipPath4288)"><text
           transform="matrix(1,0,0,-1,514.66,379.01)"
           style="font-variant:normal;font-weight:bold;font-size:13.56000042px;font-family:Calibri;-inkscape-font-specification:'Calibri Bold';writing-mode:lr-tb;fill:#ffffff;fill-opacity:1;fill-rule:nonzero;stroke:none"
           id="text4292"><tspan
             x="0"
             y="0"
             id="tspan4294">7</tspan></text>
</g></g><g
       id="g4296"><g
         id="g4298"
         clip-path="url(#clipPath4300)"><text
           transform="matrix(1,0,0,-1,574.66,379.01)"
           style="font-variant:normal;font-weight:bold;font-size:13.56000042px;font-family:Calibri;-inkscape-font-specification:'Calibri Bold';writing-mode:lr-tb;fill:#ffffff;fill-opacity:1;fill-rule:nonzero;stroke:none"
           id="text4304"><tspan
             x="0"
             y="0"
             id="tspan4306">8</tspan></text>
</g></g><g
       id="g4308"><g
         id="g4310"
         clip-path="url(#clipPath4312)"><text
           transform="matrix(1,0,0,-1,154.58,349.8)"
           style="font-variant:normal;font-weight:normal;font-size:13.56000042px;font-family:Calibri;-inkscape-font-specification:Calibri;writing-mode:lr-tb;fill:#000000;fill-opacity:1;fill-rule:nonzero;stroke:none"
           id="text4316"><tspan
             x="0"
             y="0"
             id="tspan4318">9</tspan></text>
</g></g><g
       id="g4320"><g
         id="g4322"
         clip-path="url(#clipPath4324)"><text
           transform="matrix(1,0,0,-1,211.13,349.8)"
           style="font-variant:normal;font-weight:normal;font-size:13.56000042px;font-family:Calibri;-inkscape-font-specification:Calibri;writing-mode:lr-tb;fill:#000000;fill-opacity:1;fill-rule:nonzero;stroke:none"
           id="text4328"><tspan
             x="0 6.8400202"
             y="0"
             sodipodi:role="line"
             id="tspan4330">10</tspan></text>
</g></g><g
       id="g4332"><g
         id="g4334"
         clip-path="url(#clipPath4336)"><text
           transform="matrix(1,0,0,-1,271.13,349.8)"
           style="font-variant:normal;font-weight:normal;font-size:13.56000042px;font-family:Calibri;-inkscape-font-specification:Calibri;writing-mode:lr-tb;fill:#000000;fill-opacity:1;fill-rule:nonzero;stroke:none"
           id="text4340"><tspan
             x="0 6.8400202"
             y="0"
             sodipodi:role="line"
             id="tspan4342">11</tspan></text>
</g></g><g
       id="g4344"><g
         id="g4346"
         clip-path="url(#clipPath4348)"><text
           transform="matrix(1,0,0,-1,331.13,349.8)"
           style="font-variant:normal;font-weight:normal;font-size:13.56000042px;font-family:Calibri;-inkscape-font-specification:Calibri;writing-mode:lr-tb;fill:#000000;fill-opacity:1;fill-rule:nonzero;stroke:none"
           id="text4352"><tspan
             x="0 6.8400202"
             y="0"
             sodipodi:role="line"
             id="tspan4354">12</tspan></text>
</g></g><g
       id="g4356"><g
         id="g4358"
         clip-path="url(#clipPath4360)"><text
           transform="matrix(1,0,0,-1,391.15,349.8)"
           style="font-variant:normal;font-weight:normal;font-size:13.56000042px;font-family:Calibri;-inkscape-font-specification:Calibri;writing-mode:lr-tb;fill:#000000;fill-opacity:1;fill-rule:nonzero;stroke:none"
           id="text4364"><tspan
             x="0 6.8400202"
             y="0"
             sodipodi:role="line"
             id="tspan4366">13</tspan></text>
</g></g><g
       id="g4368"><g
         id="g4370"
         clip-path="url(#clipPath4372)"><text
           transform="matrix(1,0,0,-1,451.15,349.8)"
           style="font-variant:normal;font-weight:normal;font-size:13.56000042px;font-family:Calibri;-inkscape-font-specification:Calibri;writing-mode:lr-tb;fill:#000000;fill-opacity:1;fill-rule:nonzero;stroke:none"
           id="text4376"><tspan
             x="0 6.8400202"
             y="0"
             sodipodi:role="line"
             id="tspan4378">14</tspan></text>
</g></g><g
       id="g4380"><g
         id="g4382"
         clip-path="url(#clipPath4384)"><text
           transform="matrix(1,0,0,-1,511.18,349.8)"
           style="font-variant:normal;font-weight:normal;font-size:13.56000042px;font-family:Calibri;-inkscape-font-specification:Calibri;writing-mode:lr-tb;fill:#000000;fill-opacity:1;fill-rule:nonzero;stroke:none"
           id="text4388"><tspan
             x="0 6.8400202"
             y="0"
             sodipodi:role="line"
             id="tspan4390">15</tspan></text>
</g></g><g
       id="g4392"><g
         id="g4394"
         clip-path="url(#clipPath4396)"><text
           transform="matrix(1,0,0,-1,571.18,349.8)"
           style="font-variant:normal;font-weight:normal;font-size:13.56000042px;font-family:Calibri;-inkscape-font-specification:Calibri;writing-mode:lr-tb;fill:#000000;fill-opacity:1;fill-rule:nonzero;stroke:none"
           id="text4400"><tspan
             x="0 6.8400202"
             y="0"
             sodipodi:role="line"
             id="tspan4402">16</tspan></text>
</g></g><path
       d="m 128,275.43 120,0 0,35.4 -120,0 0,-35.4 z"
       style="fill:#606372;fill-opacity:1;fill-rule:evenodd;stroke:none"
       id="path4404"
       inkscape:connector-curvature="0" /><path
       d="m 248,275.43 120,0 0,35.4 -120,0 0,-35.4 z"
       style="fill:#606372;fill-opacity:1;fill-rule:evenodd;stroke:none"
       id="path4406"
       inkscape:connector-curvature="0" /><path
       d="m 368,275.43 120,0 0,35.4 -120,0 0,-35.4 z"
       style="fill:#606372;fill-opacity:1;fill-rule:evenodd;stroke:none"
       id="path4408"
       inkscape:connector-curvature="0" /><path
       d="m 488,275.43 120,0 0,35.4 -120,0 0,-35.4 z"
       style="fill:#606372;fill-opacity:1;fill-rule:evenodd;stroke:none"
       id="path4410"
       inkscape:connector-curvature="0" /><path
       d="m 248,311.33 0,-37.4"
       style="fill:none;stroke:#ffffff;stroke-width:1;stroke-linecap:butt;stroke-linejoin:round;stroke-miterlimit:10;stroke-dasharray:none;stroke-opacity:1"
       id="path4412"
       inkscape:connector-curvature="0" /><path
       d="m 368,311.33 0,-37.4"
       style="fill:none;stroke:#ffffff;stroke-width:1;stroke-linecap:butt;stroke-linejoin:round;stroke-miterlimit:10;stroke-dasharray:none;stroke-opacity:1"
       id="path4414"
       inkscape:connector-curvature="0" /><path
       d="m 488,311.33 0,-37.4"
       style="fill:none;stroke:#ffffff;stroke-width:1;stroke-linecap:butt;stroke-linejoin:round;stroke-miterlimit:10;stroke-dasharray:none;stroke-opacity:1"
       id="path4416"
       inkscape:connector-curvature="0" /><path
       d="m 128,311.33 0,-37.4"
       style="fill:none;stroke:#ffffff;stroke-width:1;stroke-linecap:butt;stroke-linejoin:round;stroke-miterlimit:10;stroke-dasharray:none;stroke-opacity:1"
       id="path4418"
       inkscape:connector-curvature="0" /><path
       d="m 608,311.33 0,-37.4"
       style="fill:none;stroke:#ffffff;stroke-width:1;stroke-linecap:butt;stroke-linejoin:round;stroke-miterlimit:10;stroke-dasharray:none;stroke-opacity:1"
       id="path4420"
       inkscape:connector-curvature="0" /><path
       d="m 127.5,310.83 481,0"
       style="fill:none;stroke:#ffffff;stroke-width:1;stroke-linecap:butt;stroke-linejoin:round;stroke-miterlimit:10;stroke-dasharray:none;stroke-opacity:1"
       id="path4422"
       inkscape:connector-curvature="0" /><path
       d="m 127.5,275.43 481,0"
       style="fill:none;stroke:#ffffff;stroke-width:3;stroke-linecap:butt;stroke-linejoin:round;stroke-miterlimit:10;stroke-dasharray:none;stroke-opacity:1"
       id="path4424"
       inkscape:connector-curvature="0" /><g
       id="g4426"><g
         id="g4428"
         clip-path="url(#clipPath4430)"><text
           transform="matrix(1,0,0,-1,181.13,294.58)"
           style="font-variant:normal;font-weight:bold;font-size:13.56000042px;font-family:Calibri;-inkscape-font-specification:'Calibri Bold';writing-mode:lr-tb;fill:#ffffff;fill-opacity:1;fill-rule:nonzero;stroke:none"
           id="text4434"><tspan
             x="0 6.8400202"
             y="0"
             sodipodi:role="line"
             id="tspan4436">17</tspan></text>
</g></g><g
       id="g4438"><g
         id="g4440"
         clip-path="url(#clipPath4442)"><text
           transform="matrix(1,0,0,-1,171.62,281.62)"
           style="font-variant:normal;font-weight:normal;font-size:9.96000004px;font-family:Calibri;-inkscape-font-specification:Calibri;writing-mode:lr-tb;fill:#ffffff;fill-opacity:1;fill-rule:nonzero;stroke:none"
           id="text4446"><tspan
             x="0 5.0497198 7.5397201 12.58944 15.10932 20.15904 22.64904 27.698759"
             y="0"
             sodipodi:role="line"
             id="tspan4448">1,2,9,10</tspan></text>
</g></g><g
       id="g4450"><g
         id="g4452"
         clip-path="url(#clipPath4454)"><text
           transform="matrix(1,0,0,-1,301.13,294.58)"
           style="font-variant:normal;font-weight:bold;font-size:13.56000042px;font-family:Calibri;-inkscape-font-specification:'Calibri Bold';writing-mode:lr-tb;fill:#ffffff;fill-opacity:1;fill-rule:nonzero;stroke:none"
           id="text4458"><tspan
             x="0 6.8400202"
             y="0"
             sodipodi:role="line"
             id="tspan4460">18</tspan></text>
</g></g><g
       id="g4462"><g
         id="g4464"
         clip-path="url(#clipPath4466)"><text
           transform="matrix(1,0,0,-1,289.13,281.62)"
           style="font-variant:normal;font-weight:normal;font-size:9.96000004px;font-family:Calibri;-inkscape-font-specification:Calibri;writing-mode:lr-tb;fill:#ffffff;fill-opacity:1;fill-rule:nonzero;stroke:none"
           id="text4470"><tspan
             x="0 5.0497198 7.5397201 12.58944 15.10932 20.15904 25.208759 27.698759 32.748482"
             y="0"
             sodipodi:role="line"
             id="tspan4472">3,4,11,12</tspan></text>
</g></g><g
       id="g4474"><g
         id="g4476"
         clip-path="url(#clipPath4478)"><text
           transform="matrix(1,0,0,-1,421.15,294.58)"
           style="font-variant:normal;font-weight:bold;font-size:13.56000042px;font-family:Calibri;-inkscape-font-specification:'Calibri Bold';writing-mode:lr-tb;fill:#ffffff;fill-opacity:1;fill-rule:nonzero;stroke:none"
           id="text4482"><tspan
             x="0 6.8400202"
             y="0"
             sodipodi:role="line"
             id="tspan4484">19</tspan></text>
</g></g><g
       id="g4486"><g
         id="g4488"
         clip-path="url(#clipPath4490)"><text
           transform="matrix(1,0,0,-1,409.15,281.62)"
           style="font-variant:normal;font-weight:normal;font-size:9.96000004px;font-family:Calibri;-inkscape-font-specification:Calibri;writing-mode:lr-tb;fill:#ffffff;fill-opacity:1;fill-rule:nonzero;stroke:none"
           id="text4494"><tspan
             x="0 5.0497198 7.5397201 12.58944 15.10932 20.15904 25.208759 27.698759 32.748482"
             y="0"
             sodipodi:role="line"
             id="tspan4496">5,6,13,14</tspan></text>
</g></g><g
       id="g4498"><g
         id="g4500"
         clip-path="url(#clipPath4502)"><text
           transform="matrix(1,0,0,-1,541.18,294.58)"
           style="font-variant:normal;font-weight:bold;font-size:13.56000042px;font-family:Calibri;-inkscape-font-specification:'Calibri Bold';writing-mode:lr-tb;fill:#ffffff;fill-opacity:1;fill-rule:nonzero;stroke:none"
           id="text4506"><tspan
             x="0 6.8400202"
             y="0"
             sodipodi:role="line"
             id="tspan4508">20</tspan></text>
</g></g><g
       id="g4510"><g
         id="g4512"
         clip-path="url(#clipPath4514)"><text
           transform="matrix(1,0,0,-1,529.18,281.62)"
           style="font-variant:normal;font-weight:normal;font-size:9.96000004px;font-family:Calibri;-inkscape-font-specification:Calibri;writing-mode:lr-tb;fill:#ffffff;fill-opacity:1;fill-rule:nonzero;stroke:none"
           id="text4518"><tspan
             x="0 5.0497198 7.5397201 12.58944 15.10932 20.15904 25.208759 27.698759 32.748482"
             y="0"
             sodipodi:role="line"
             id="tspan4520">7,8,15,16</tspan></text>
</g></g><path
       d="m 128,216.71 480.4,0 0,35.4 -480.4,0 0,-35.4 z"
       style="fill:#606372;fill-opacity:1;fill-rule:evenodd;stroke:none"
       id="path4522"
       inkscape:connector-curvature="0" /><path
       d="m 128,252.61 0,-37.4"
       style="fill:none;stroke:#ffffff;stroke-width:1;stroke-linecap:butt;stroke-linejoin:round;stroke-miterlimit:10;stroke-dasharray:none;stroke-opacity:1"
       id="path4524"
       inkscape:connector-curvature="0" /><path
       d="m 608.4,252.61 0,-37.4"
       style="fill:none;stroke:#ffffff;stroke-width:1;stroke-linecap:butt;stroke-linejoin:round;stroke-miterlimit:10;stroke-dasharray:none;stroke-opacity:1"
       id="path4526"
       inkscape:connector-curvature="0" /><path
       d="m 127.5,252.11 481.4,0"
       style="fill:none;stroke:#ffffff;stroke-width:1;stroke-linecap:butt;stroke-linejoin:round;stroke-miterlimit:10;stroke-dasharray:none;stroke-opacity:1"
       id="path4528"
       inkscape:connector-curvature="0" /><path
       d="m 127.5,216.71 481.4,0"
       style="fill:none;stroke:#ffffff;stroke-width:3;stroke-linecap:butt;stroke-linejoin:round;stroke-miterlimit:10;stroke-dasharray:none;stroke-opacity:1"
       id="path4530"
       inkscape:connector-curvature="0" /><g
       id="g4532"><g
         id="g4534"
         clip-path="url(#clipPath4536)"><text
           transform="matrix(1,0,0,-1,361.34,235.85)"
           style="font-variant:normal;font-weight:bold;font-size:13.58399963px;font-family:Calibri;-inkscape-font-specification:'Calibri Bold';writing-mode:lr-tb;fill:#ffffff;fill-opacity:1;fill-rule:nonzero;stroke:none"
           id="text4540"><tspan
             x="0 6.8399882"
             y="0"
             sodipodi:role="line"
             id="tspan4542">21</tspan></text>
</g></g><g
       id="g4544"><g
         id="g4546"
         clip-path="url(#clipPath4548)"><text
           transform="matrix(1,0,0,-1,343.08,222.86)"
           style="font-variant:normal;font-weight:normal;font-size:9.96000004px;font-family:Calibri;-inkscape-font-specification:Calibri;writing-mode:lr-tb;fill:#ffffff;fill-opacity:1;fill-rule:nonzero;stroke:none"
           id="text4552"><tspan
             x="0 5.0497198 10.09944 12.58944"
             y="0"
             sodipodi:role="line"
             id="tspan4554">17, </tspan></text>
</g></g><g
       id="g4556"><g
         id="g4558"
         clip-path="url(#clipPath4560)"><text
           transform="matrix(1,0,0,-1,358.1,222.86)"
           style="font-variant:normal;font-weight:normal;font-size:9.96000004px;font-family:Calibri;-inkscape-font-specification:Calibri;writing-mode:lr-tb;fill:#ffffff;fill-opacity:1;fill-rule:nonzero;stroke:none"
           id="text4564"><tspan
             x="0 5.0497198 10.09944 12.58944 17.63916 22.688881 25.178881 30.2286"
             y="0"
             sodipodi:role="line"
             id="tspan4566">18,19,20</tspan></text>
</g></g></g></svg>